<?xml version="1.0" standalone="no"?>
<!DOCTYPE svg PUBLIC "-//W3C//DTD SVG 20010904//EN"
 "http://www.w3.org/TR/2001/REC-SVG-20010904/DTD/svg10.dtd">
<svg version="1.0" xmlns="http://www.w3.org/2000/svg"
 width="267.000000pt" height="267.000000pt" viewBox="0 0 267.000000 267.000000"
 preserveAspectRatio="xMidYMid meet">
<metadata>
Created by potrace 1.11, written by Peter Selinger 2001-2013
</metadata>
<g transform="translate(0.000000,267.000000) scale(0.100000,-0.100000)"
fill="#000000" stroke="none">
<path d="M1900 1859 c-30 -4 -84 -10 -120 -14 -36 -3 -83 -8 -105 -10 -22 -3
-62 -7 -90 -10 -27 -3 -68 -8 -90 -10 -41 -5 -75 -9 -200 -20 -38 -4 -74 -8
-80 -9 -5 0 -9 10 -9 24 2 28 -13 42 -36 35 -8 -2 -44 -7 -80 -10 -36 -3 -78
-7 -95 -9 -40 -5 -138 -16 -200 -22 -27 -2 -66 -6 -85 -9 -51 -6 -161 -17
-190 -19 -26 -2 -26 -3 -29 -122 l-1 -51 -97 -12 c-54 -6 -125 -14 -158 -17
-33 -4 -62 -8 -63 -9 -6 -5 -8 -256 -2 -265 3 -5 20 -8 39 -7 l34 2 -1 -105
c-1 -58 -1 -110 -2 -115 0 -6 -17 -12 -38 -13 -61 -4 -197 -23 -202 -29 -3 -3
18 -3 45 0 28 4 83 9 122 13 l73 6 0 -25 c0 -14 -4 -28 -8 -31 -4 -2 -44 -8
-87 -11 -44 -4 -84 -11 -89 -15 -5 -5 4 -7 20 -5 16 2 59 6 97 10 l67 7 0 -39
c0 -44 -6 -42 110 -29 89 11 122 15 180 20 49 5 96 10 295 32 28 3 66 6 85 8
l36 3 -4 -84 -4 -85 83 7 c46 3 91 8 99 10 8 2 47 7 85 10 39 3 81 8 95 10 14
2 57 6 95 10 83 7 151 14 185 20 14 2 61 7 105 11 44 3 83 9 87 13 4 3 8 41 9
84 1 43 5 79 8 81 3 2 38 7 76 11 39 4 84 8 100 10 17 2 59 6 95 10 36 3 76 8
90 10 14 3 52 7 85 10 33 3 85 8 115 11 30 4 64 7 75 8 12 1 21 9 23 22 3 20
12 23 90 30 48 4 90 8 95 10 4 1 14 2 22 3 8 0 15 8 15 15 0 11 -10 14 -37 11
-183 -18 -183 -18 -183 3 0 24 12 29 105 37 38 4 72 9 75 12 5 5 -130 -2 -161
-9 -12 -2 -14 32 -12 194 l3 197 -23 -4 c-12 -2 -53 -6 -92 -10 -38 -3 -83 -8
-100 -11 -16 -3 -50 -6 -75 -8 -48 -4 -178 -17 -195 -20 -5 0 -11 15 -13 35
-4 43 0 44 118 54 41 4 91 9 110 11 19 3 49 7 65 8 45 5 45 5 45 14 0 5 -28 5
-62 1 -35 -4 -90 -10 -123 -13 -33 -3 -81 -8 -107 -12 -43 -5 -48 -4 -48 14 0
22 16 27 143 38 42 3 77 10 77 15 0 4 -10 6 -22 3 -13 -2 -57 -7 -98 -10 -41
-3 -79 -7 -85 -8 -6 0 -10 22 -10 51 0 28 -2 53 -5 55 -3 2 -30 1 -60 -3z"/>
<path d="M2337 1703 c-7 -6 11 -33 22 -33 4 0 7 9 8 20 2 19 -16 27 -30 13z"/>
<path d="M170 1119 c0 -14 5 -19 17 -17 26 5 29 38 4 38 -15 0 -21 -6 -21 -21z"/>
<path d="M2185 1070 c-8 -14 3 -30 21 -30 8 0 14 9 14 20 0 21 -24 28 -35 10z"/>
<path d="M150 911 c0 -5 6 -14 14 -20 11 -9 15 -7 19 9 4 15 0 20 -14 20 -10
0 -19 -4 -19 -9z"/>
</g>
</svg>
